<svg width="64" height="64" viewBox="0 0 64 64" fill="none" xmlns="http://www.w3.org/2000/svg">
<g id="CreateTweetButton">
<g id="Shape" filter="url(#filter0_d_794_5428)">
<circle cx="32" cy="31" r="28" fill="#4C9EEB"/>
</g>
<g id="Add text icon">
<path d="M25.5257 42.8499C27.4923 29.4521 38.0363 21.7604 43.4505 21.6685C43.5057 21.6675 43.548 21.7156 43.5477 21.7708C43.5121 28.1758 40.1533 28.4857 38.3866 28.6486C37.9784 28.6863 37.6551 28.7161 37.4776 28.8115C36.2811 29.093 35.4541 29.9086 35.1022 30.3247C34.9435 30.5122 36.315 30.7328 38.7216 30.5222C38.8094 30.5145 38.8629 30.6167 38.8066 30.6846C36.8139 33.0895 34.595 33.5748 33.2042 33.879C32.7518 33.9779 32.387 34.0577 32.1461 34.1781C30.4931 35.7974 27.6996 39.5277 25.7094 42.9168C25.6539 43.0113 25.5098 42.9582 25.5257 42.8499Z" fill="white"/>
<path d="M24.5759 22.424C24.9901 22.424 25.3259 22.7598 25.3259 23.174V26.674H28.8259C29.2401 26.674 29.5759 27.0098 29.5759 27.424C29.5759 27.8382 29.2401 28.174 28.8259 28.174H25.3259V31.674C25.3259 32.0882 24.9901 32.424 24.5759 32.424C24.1617 32.424 23.8259 32.0882 23.8259 31.674V28.174H20.3259C19.9117 28.174 19.5759 27.8382 19.5759 27.424C19.5759 27.0098 19.9117 26.674 20.3259 26.674H23.8259V23.174C23.8259 22.7598 24.1617 22.424 24.5759 22.424Z" fill="white"/>
</g>
</g>
<defs>
<filter id="filter0_d_794_5428" x="0" y="0" width="64" height="64" filterUnits="userSpaceOnUse" color-interpolation-filters="sRGB">
<feFlood flood-opacity="0" result="BackgroundImageFix"/>
<feColorMatrix in="SourceAlpha" type="matrix" values="0 0 0 0 0 0 0 0 0 0 0 0 0 0 0 0 0 0 127 0" result="hardAlpha"/>
<feOffset dy="1"/>
<feGaussianBlur stdDeviation="2"/>
<feColorMatrix type="matrix" values="0 0 0 0 0 0 0 0 0 0 0 0 0 0 0 0 0 0 0.25 0"/>
<feBlend mode="normal" in2="BackgroundImageFix" result="effect1_dropShadow_794_5428"/>
<feBlend mode="normal" in="SourceGraphic" in2="effect1_dropShadow_794_5428" result="shape"/>
</filter>
</defs>
</svg>
