<svg width="21" height="19" viewBox="0 0 21 19" fill="none" xmlns="http://www.w3.org/2000/svg">
<g id="Gif icon">
<path d="M8.39679 12.437C8.881 11.9639 9.12311 11.315 9.12311 10.4905V9.71851H6.55817V10.7644H7.65387L7.64972 10.864C7.63035 11.1684 7.50999 11.4132 7.28864 11.5986C7.06728 11.784 6.78367 11.8767 6.43781 11.8767C6.00063 11.8767 5.652 11.7065 5.39191 11.3662C5.13458 11.0231 5.00592 10.5569 5.00592 9.96753C5.00592 9.38371 5.1249 8.92716 5.36285 8.5979C5.60358 8.26864 5.93699 8.104 6.3631 8.104C6.66193 8.104 6.91648 8.18009 7.12677 8.33228C7.33982 8.48169 7.4837 8.68783 7.55841 8.95068H9.06085C8.98615 8.31706 8.69977 7.80656 8.20172 7.41919C7.70644 7.02905 7.09357 6.83398 6.3631 6.83398C5.46385 6.83398 4.75413 7.11621 4.23395 7.68066C3.71377 8.24235 3.45367 9.01017 3.45367 9.98413C3.45367 10.9692 3.71515 11.7425 4.2381 12.3042C4.76105 12.8659 5.48322 13.1467 6.4046 13.1467C7.25128 13.1467 7.91534 12.9102 8.39679 12.437Z" fill="#4C9EEB"/>
<path d="M9.96031 12.9849H11.4835V6.99585H9.96031V12.9849Z" fill="#4C9EEB"/>
<path d="M12.5988 12.9849H14.122V10.752H16.4379V9.58569H14.122V8.22021H16.6745V6.99585H12.5988V12.9849Z" fill="#4C9EEB"/>
<path fill-rule="evenodd" clip-rule="evenodd" d="M0.0303345 2.98486C0.0303345 1.88029 0.925765 0.984863 2.03033 0.984863H18.0303C19.1349 0.984863 20.0303 1.88029 20.0303 2.98486V16.9849C20.0303 18.0894 19.1349 18.9849 18.0303 18.9849H2.03033C0.925766 18.9849 0.0303345 18.0894 0.0303345 16.9849V2.98486ZM2.03033 2.48486H18.0303C18.3065 2.48486 18.5303 2.70872 18.5303 2.98486V16.9849C18.5303 17.261 18.3065 17.4849 18.0303 17.4849H2.03033C1.75419 17.4849 1.53033 17.261 1.53033 16.9849V2.98486C1.53033 2.70872 1.75419 2.48486 2.03033 2.48486Z" fill="#4C9EEB"/>
</g>
</svg>
