<svg width="19" height="20" viewBox="0 0 19 20" fill="none" xmlns="http://www.w3.org/2000/svg">
<g id="Image icon">
<path d="M6 7.98486C6.82843 7.98486 7.5 7.31329 7.5 6.48486C7.5 5.65644 6.82843 4.98486 6 4.98486C5.17157 4.98486 4.5 5.65644 4.5 6.48486C4.5 7.31329 5.17157 7.98486 6 7.98486Z" fill="#4C9EEB"/>
<path fill-rule="evenodd" clip-rule="evenodd" d="M18 2.98486V12.4242L18.0303 12.4545L18 12.4849V16.9849C18 18.0894 17.1046 18.9849 16 18.9849H13L12.9697 19.0152L12.9393 18.9849H2C0.89543 18.9849 0 18.0894 0 16.9849V2.98486C0 1.88029 0.895431 0.984863 2 0.984863H16C17.1046 0.984863 18 1.88029 18 2.98486ZM2 2.48486H16C16.2761 2.48486 16.5 2.70872 16.5 2.98486V10.9242L14.2012 8.6254C13.5431 7.96726 12.4849 7.93943 11.7931 8.56207L8.02718 11.9514L7.23744 11.1616C6.55402 10.4782 5.44598 10.4782 4.76256 11.1616L1.5 14.4242V2.98486C1.5 2.70872 1.72386 2.48486 2 2.48486ZM13.1405 9.68606L16.5 13.0455V16.9849C16.5 17.261 16.2761 17.4849 16 17.4849H13.5607L9.08931 13.0135L12.7965 9.67702C12.8954 9.58807 13.0465 9.59204 13.1405 9.68606ZM1.5 16.4849V16.9849C1.5 17.261 1.72386 17.4849 2 17.4849H11.4393L6.17678 12.2223C6.07915 12.1247 5.92085 12.1247 5.82322 12.2223L1.53033 16.5152L1.5 16.4849Z" fill="#4C9EEB"/>
</g>
</svg>
