<svg width="17" height="19" viewBox="0 0 17 19" fill="none" xmlns="http://www.w3.org/2000/svg">
<g id="Loaction icon">
<path fill-rule="evenodd" clip-rule="evenodd" d="M12.0303 8.73486C12.0303 10.8059 10.3514 12.4849 8.28033 12.4849C6.20927 12.4849 4.53033 10.8059 4.53033 8.73486C4.53033 6.6638 6.20927 4.98486 8.28033 4.98486C10.3514 4.98486 12.0303 6.6638 12.0303 8.73486ZM10.5303 8.73486C10.5303 9.9775 9.52297 10.9849 8.28033 10.9849C7.03769 10.9849 6.03033 9.9775 6.03033 8.73486C6.03033 7.49222 7.03769 6.48486 8.28033 6.48486C9.52297 6.48486 10.5303 7.49222 10.5303 8.73486Z" fill="#4C9EEB"/>
<path fill-rule="evenodd" clip-rule="evenodd" d="M16.2803 8.98486C16.2803 14.4849 9.28033 18.9849 8.28033 18.9849C7.28033 18.9849 0.280334 14.4849 0.280334 8.98486C0.280334 4.56659 3.86206 0.984863 8.28033 0.984863C12.6986 0.984863 16.2803 4.56659 16.2803 8.98486ZM14.7803 8.98486C14.7803 11.1192 13.3909 13.25 11.6128 14.9689C10.751 15.802 9.86207 16.4746 9.14609 16.9308C8.78854 17.1587 8.49269 17.3207 8.28034 17.4199C8.06799 17.3207 7.77213 17.1587 7.41458 16.9308C6.6986 16.4746 5.80971 15.802 4.94787 14.9689C3.16973 13.25 1.78033 11.1192 1.78033 8.98486C1.78033 5.39501 4.69048 2.48486 8.28033 2.48486C11.8702 2.48486 14.7803 5.39501 14.7803 8.98486Z" fill="#4C9EEB"/>
</g>
</svg>
