<svg width="21" height="21" viewBox="0 0 21 21" fill="none" xmlns="http://www.w3.org/2000/svg">
<path id="Pen Stroke Icon" fill-rule="evenodd" clip-rule="evenodd" d="M12.3271 1.20878C13.4011 0.134836 15.1423 0.134834 16.2162 1.20878L19.3878 4.38035C20.4617 5.45429 20.4617 7.19549 19.3878 8.26944L7.86739 19.7898C7.6986 19.9586 7.47499 20.0615 7.23698 20.0798L0.538384 20.5951C0.232664 20.6186 -0.0220083 20.3639 0.00150863 20.0582L0.516785 13.3596C0.535094 13.1216 0.637939 12.898 0.806733 12.7292L12.3271 1.20878ZM15.1556 2.26944C14.6674 1.78128 13.8759 1.78128 13.3878 2.26944L12.3323 3.32489L17.2717 8.26423L18.3271 7.20878C18.8153 6.72062 18.8153 5.92916 18.3271 5.44101L15.1556 2.26944ZM16.211 9.32489L11.2717 4.38555L3.03944 12.6178C2.64891 13.0083 2.64891 13.6415 3.03944 14.032L6.56456 17.5571C6.95509 17.9476 7.58825 17.9476 7.97878 17.5571L16.211 9.32489ZM5.58828 18.7022L1.89439 15.0083L1.63131 18.4284C1.60779 18.7341 1.86246 18.9888 2.16818 18.9653L5.58828 18.7022Z" fill="#687684"/>
</svg>
