<svg width="19" height="19" viewBox="0 0 19 19" fill="none" xmlns="http://www.w3.org/2000/svg">
<path id="Stats icon" fill-rule="evenodd" clip-rule="evenodd" d="M1.53033 1.73486C1.53033 1.32065 1.19455 0.984863 0.780334 0.984863C0.366121 0.984863 0.0303345 1.32065 0.0303345 1.73486V18.2349C0.0303345 18.6491 0.366121 18.9849 0.780334 18.9849C1.19455 18.9849 1.53033 18.6491 1.53033 18.2349V16.7349H11.0303C11.9968 16.7349 12.7803 15.9514 12.7803 14.9849V12.7349H16.5303C17.4968 12.7349 18.2803 11.9514 18.2803 10.9849V8.98486C18.2803 8.01836 17.4968 7.23486 16.5303 7.23486H15.2803V4.98486C15.2803 4.01836 14.4968 3.23486 13.5303 3.23486H1.53033V1.73486ZM1.53033 4.73486V7.23486H13.7803V4.98486C13.7803 4.84679 13.6684 4.73486 13.5303 4.73486H1.53033ZM1.53033 8.73486V11.2349H16.5303C16.6684 11.2349 16.7803 11.1229 16.7803 10.9849V8.98486C16.7803 8.84679 16.6684 8.73486 16.5303 8.73486H1.53033ZM1.53033 12.7349V15.2349H11.0303C11.1684 15.2349 11.2803 15.1229 11.2803 14.9849V12.7349H1.53033Z" fill="#4C9EEB"/>
</svg>
