<svg width="3" height="11" viewBox="0 0 3 11" fill="none" xmlns="http://www.w3.org/2000/svg">
<path d="M3 1.5C3 2.32843 2.32843 3 1.5 3C0.671574 3 0 2.32843 0 1.5C0 0.67157 0.671574 0 1.5 0C2.32843 0 3 0.67157 3 1.5Z" fill="#BDC5CD"/>
<path d="M3 5.5C3 6.32843 2.32843 7 1.5 7C0.671574 7 0 6.32843 0 5.5C0 4.67157 0.671574 4 1.5 4C2.32843 4 3 4.67157 3 5.5Z" fill="#BDC5CD"/>
<path d="M1.5 11C2.32843 11 3 10.3284 3 9.5C3 8.67157 2.32843 8 1.5 8C0.671574 8 0 8.67157 0 9.5C0 10.3284 0.671574 11 1.5 11Z" fill="#BDC5CD"/>
</svg>
